<?xml version="1.0" encoding="utf-8"?>
<!-- Generator: Adobe Illustrator 27.0.0, SVG Export Plug-In . SVG Version: 6.00 Build 0)  -->
<svg version="1.1" id="Ebene_1" xmlns="http://www.w3.org/2000/svg" xmlns:xlink="http://www.w3.org/1999/xlink" x="0px" y="0px"
	 viewBox="0 0 566.9 155.4" style="enable-background:new 0 0 566.9 155.4;" xml:space="preserve">
<style type="text/css">
	.st0{fill:#84175A;}
</style>
<g>
	<path d="M14.6,150.6l-1.8-5.8H5.6l-1.8,5.8H0l7.3-22.2h4.3l7.1,22.2H14.6z M9.3,132.1L9.3,132.1c-0.5,1.6-2.4,8.3-2.8,9.6h5.4
		C11.7,141.2,9.5,133,9.3,132.1z"/>
	<path d="M38.1,150.6H26.8v-22.1h3.8v19.1h8.2L38.1,150.6z"/>
	<path d="M58.6,150.6H47.3v-22.1h3.8v19.1h8.2L58.6,150.6z"/>
	<path d="M72.5,141.7v8.9h-3.8v-9l-7-13.2h4.4l3.3,7c0.6,1.2,1.1,2.6,1.2,2.9c0.1-0.3,0.7-1.7,1.2-2.8l3.4-7h4.3L72.5,141.7z"/>
	<path d="M113.4,131.5h-7.6v6h6.2v3h-6.2v10.1h-3.7v-22.1h11.7L113.4,131.5z"/>
	<path d="M130,151c-6.3,0-9.4-4.9-9.4-11.4c0-7.3,3.7-11.4,9.2-11.4c6.2,0,9.2,5,9.2,11.4C139.1,146.5,135.8,151,130,151z
		 M129.8,131c-3.7,0-5.1,3-5.1,8.3c0,5.7,1.4,8.9,5.2,8.9c3.3,0,5-2.4,5-8.4C134.9,134.4,133.8,131,129.8,131z"/>
	<path d="M159.7,150.6l-1.9-3.4c-1.5-2.7-2.6-4.3-3.8-5.5c-0.4-0.4-0.7-0.6-1.4-0.7v9.6H149v-22.1h6.8c5,0,7.2,2.9,7.2,6.3
		c0,3.2-2,6.1-5.5,6.1c0.8,0.4,2.3,2.6,3.4,4.4l3.3,5.3H159.7z M154.6,131.4h-2v7h1.9c1.9,0,3-0.3,3.6-0.9c0.6-0.6,1-1.5,1-2.7
		C159.1,132.6,157.9,131.4,154.6,131.4z"/>
	<path d="M200.1,150.6l-1.8-5.8h-7.2l-1.8,5.8h-3.8l7.3-22.2h4.3l7.1,22.2H200.1z M194.9,132.1L194.9,132.1
		c-0.5,1.6-2.4,8.3-2.8,9.6h5.4C197.3,141.2,195,133,194.9,132.1z"/>
	<path d="M230.2,152.7c-0.9,1.3-2.4,2.2-3.8,2.7l-1.7-2c1.1-0.6,2.1-1.6,2.6-2.5c0.4-0.8,0.5-1.7,0.5-4.1v-18.4h3.7v18
		C231.5,150.2,231.1,151.4,230.2,152.7z"/>
	<path d="M249.8,151c-5.8,0-7.6-3-7.6-6.6v-16h3.7v14.9c0,3.4,1.2,4.5,3.9,4.5c2.7,0,4-1.6,4-4.5v-14.9h3.7v15.9
		C257.5,148.5,254.7,151,249.8,151z"/>
	<path d="M274.3,151c-2.5,0-5.1-0.7-7.3-2l1.4-2.8c2,1.1,3.8,1.8,6,1.8c2.7,0,4.4-1.3,4.4-3.5c0-1.6-1-2.7-3.3-3.3l-2.4-0.7
		c-2-0.6-3.5-1.4-4.3-2.7c-0.6-0.9-0.9-2-0.9-3.2c0-3.9,3.1-6.6,7.5-6.6c2.5,0,5.1,0.7,7,2.1l-1.7,2.6c-2-1.2-3.5-1.7-5.2-1.7
		c-2.2,0-3.6,1.2-3.6,3c0,1.4,0.8,2.1,2.9,2.7l2.6,0.8c3.2,0.9,5.4,3,5.4,6.3C282.9,147.6,279.9,151,274.3,151z"/>
	<path d="M305.1,131.5h-5.6v19.1h-3.7v-19.1h-5.6v-3.1h15.3L305.1,131.5z"/>
	<path d="M346.2,150.7H342l-2.3-10.3c-0.6-3-1-5.8-1.1-6.4h-0.1c-0.1,0.7-0.6,3.9-1.1,6.3l-2.1,10.4h-4.3l-5.3-22.3h3.9l2.2,10.3
		c0.5,2.4,1,5.6,1.2,7.1h0.1c0.1-0.8,0.7-4.5,1.2-6.9l2.3-10.6h4.1l2.3,11c0.5,2.3,1,5.5,1.1,6.2h0.1c0.2-0.9,0.8-5,1.3-7.2l2.1-10
		h3.8L346.2,150.7z"/>
	<path d="M368,151c-6.3,0-9.4-4.9-9.4-11.4c0-7.3,3.7-11.4,9.2-11.4c6.2,0,9.2,5,9.2,11.4C377.1,146.5,373.7,151,368,151z
		 M367.8,131c-3.7,0-5.1,3-5.1,8.3c0,5.7,1.4,8.9,5.2,8.9c3.3,0,5-2.4,5-8.4C372.9,134.4,371.7,131,367.8,131z"/>
	<path d="M397.7,150.6l-1.9-3.4c-1.5-2.7-2.6-4.3-3.8-5.5c-0.4-0.4-0.7-0.6-1.4-0.7v9.6h-3.6v-22.1h6.8c5,0,7.2,2.9,7.2,6.3
		c0,3.2-2,6.1-5.5,6.1c0.8,0.4,2.3,2.6,3.4,4.4l3.3,5.3H397.7z M392.5,131.4h-2v7h1.9c1.9,0,3-0.3,3.6-0.9c0.6-0.6,1-1.5,1-2.7
		C397,132.6,395.8,131.4,392.5,131.4z"/>
	<path d="M422.3,150.6h-11.3v-22.1h3.8v19.1h8.2L422.3,150.6z"/>
	<path d="M444.8,147.5c-1.9,2.4-3.8,3.1-7.9,3.1h-5.5v-22.1h4.6c4.2,0,6.6,0.8,8.7,3.1c1.6,1.9,2.4,4.5,2.4,8
		C447.2,143,446.3,145.6,444.8,147.5z M441.7,133.3c-1-1.4-2.2-1.9-4.2-1.9h-2.3v16.2h2.4c3.9,0,5.5-2.6,5.5-7.6
		C443.1,137.1,442.8,134.9,441.7,133.3z"/>
</g>
<g>
	<path class="st0" d="M350.2,27c-1.7-0.4-3.4-0.6-5.1-0.9c-1.7-0.2-3.4-0.4-5.1-0.6c-1.7-0.1-3.2-0.2-4.4-0.2
		c-6.7,0-12.8,0.6-18.3,1.9s-10.2,2.6-14.2,4v75h22.4V45.6c1-0.3,2.5-0.6,4.4-0.8c2-0.2,3.6-0.4,5-0.4c3.1,0,6,0.3,8.7,0.8
		c1.7,0.3,3.2,0.7,4.6,1l3.9-18.7C351.5,27.3,350.9,27.1,350.2,27"/>
	<path class="st0" d="M108.1,46.6c-0.9-4.4-2.6-8.2-5-11.4c-2.4-3.2-5.6-5.7-9.7-7.4c-4.1-1.8-9.3-2.6-15.6-2.6
		c-3.5,0-7.4,0.6-11.5,2c-4.2,1.3-7.9,3.1-11.1,5.4c-2.3-2-5.2-3.7-8.8-5.2c-3.6-1.4-8.2-2.2-13.9-2.2c-2.9,0-5.9,0.1-8.9,0.4
		c-3,0.2-5.9,0.6-8.8,1.1C12,27,9.3,27.5,6.7,28c-2.6,0.6-4.8,1.1-6.7,1.6v76.5h22.4V45c1.4-0.2,2.9-0.4,4.4-0.5
		c1.5-0.1,3-0.2,4.4-0.2c4.5,0,7.7,1.5,9.6,4.5c1.9,3,2.8,8.1,2.8,15.4v42h22.4V62.9c0-2.9-0.1-5.6-0.3-8.2c-0.2-2.6-0.6-5-1.4-7.3
		c1.4-0.9,3.2-1.6,5.3-2.2c2.1-0.6,3.8-0.9,5-0.9c4.5,0,7.7,1.5,9.6,4.5c1.9,3,2.8,8.1,2.8,15.4v42h22.4V61.4
		C109.4,55.9,109,51,108.1,46.6"/>
	<path class="st0" d="M213.4,75.9c-0.8-2.5-2.1-4.8-3.9-6.8c-1.9-2-4.4-4-7.6-5.7c-3.2-1.8-7.3-3.6-12.2-5.4c-2.4-0.9-4.4-1.7-6-2.5
		s-2.8-1.5-3.7-2.1c-0.9-0.6-1.5-1.3-1.8-2s-0.5-1.5-0.5-2.4c0-3.9,3.5-5.9,10.5-5.9c3.8,0,7.2,0.4,10.3,1.1s5.9,1.5,8.5,2.4L211,29
		c-2.6-1-6.1-1.9-10.5-2.8c-4.4-0.9-9-1.3-13.9-1.3c-9.6,0-17.2,2.2-22.7,6.5c-5.5,4.3-8.3,10.2-8.3,17.6c0,3.8,0.5,7.1,1.7,9.8
		c1.1,2.7,2.7,5,4.7,7c2,2,4.4,3.6,7.3,5s6,2.8,9.6,4.1c4.5,1.7,7.9,3.2,10.1,4.6c2.2,1.4,3.3,2.9,3.3,4.7c0,2.3-0.9,3.9-2.6,4.7
		c-1.7,0.8-4.6,1.2-8.7,1.2c-3.9,0-7.9-0.4-11.9-1.3c-4-0.9-7.9-2-11.7-3.5l-3.8,18.2c1.8,0.8,5,1.8,9.7,3
		c4.7,1.2,10.5,1.8,17.5,1.8c10.7,0,19-2,24.9-6c5.9-4,8.8-9.9,8.8-17.7C214.5,81.3,214.1,78.4,213.4,75.9"/>
	<path class="st0" d="M284.9,35.1c-6.5-6.9-15.4-10.3-26.6-10.3c-4.8,0-9.5,0.9-14.1,2.7c-4.6,1.8-8.6,4.5-12.1,8
		c-3.5,3.5-6.4,7.9-8.5,13.2c-2.2,5.3-3.2,11.4-3.2,18.4c0,5.8,0.8,11.2,2.5,16.2c1.6,5,4.2,9.4,7.7,13c3.5,3.7,7.8,6.5,13.1,8.7
		c5.3,2.1,11.5,3.2,18.6,3.2c2.8,0,5.6-0.1,8.4-0.5c2.8-0.3,5.4-0.7,7.9-1.1s4.7-1,6.7-1.6c2-0.6,3.5-1.2,4.7-1.8l-3.7-17.9
		c-2.4,1-5.4,1.8-8.9,2.5c-4,0.8-8,1.1-12.1,1.1c-6.4,0-11.5-1.4-15.4-4.1c-3.8-2.7-6-6.4-6.5-11h50.9c0.1-1.2,0.2-2.6,0.3-4.1
		c0.1-1.5,0.2-3,0.2-4.3C294.7,52.1,291.4,42,284.9,35.1 M243.3,58.5c0.3-1.9,0.8-3.8,1.4-5.6c0.6-1.9,1.6-3.5,2.8-4.9
		c1.2-1.4,2.7-2.5,4.5-3.4c1.8-0.9,4-1.3,6.5-1.3c2.6,0,4.8,0.5,6.5,1.4c1.8,0.9,3.2,2.1,4.4,3.5c1.1,1.4,2,3,2.6,4.8
		c0.5,1.8,0.9,3.7,1,5.6L243.3,58.5L243.3,58.5z"/>
	<path class="st0" d="M415.8,35.1c-6.5-6.9-15.4-10.3-26.7-10.3c-1.5,0-2.9,0.1-4.3,0.2h0c-3.3,0.4-6.6,1.2-9.7,2.5
		c-4.6,1.8-8.6,4.5-12.1,8c-3.5,3.5-6.4,7.9-8.5,13.2c-1.8,4.3-2.8,9.2-3.1,14.6c-0.1,1.2-0.1,2.5-0.1,3.8c0,5.8,0.8,11.2,2.5,16.2
		c1.6,5,4.2,9.4,7.7,13c3.5,3.7,7.8,6.5,13.1,8.7c5.3,2.1,11.5,3.2,18.6,3.2c2.8,0,5.6-0.1,8.4-0.5c2.8-0.3,5.4-0.7,7.9-1.1
		s4.7-1,6.7-1.6c2-0.6,3.6-1.2,4.8-1.8l0,0l-3.7-17.9c-2.4,1-5.4,1.8-9,2.5c-4,0.8-8,1.1-12.1,1.1c-6.4,0-11.5-1.4-15.3-4.1
		c-3.8-2.7-6-6.4-6.5-11h50.9c0.1-1.2,0.2-2.6,0.3-4.1c0.1-1.5,0.2-3,0.2-4.3C425.6,52.1,422.3,42,415.8,35.1 M374.2,58.5
		c0.3-1.9,0.8-3.8,1.4-5.6c0.7-1.9,1.6-3.5,2.8-4.9c1.2-1.4,2.7-2.5,4.5-3.4c0.7-0.4,1.5-0.6,2.4-0.8c1.2-0.3,2.6-0.4,4-0.4
		c2.6,0,4.8,0.5,6.5,1.4c1.8,0.9,3.2,2.1,4.4,3.5c1.2,1.4,2,3,2.6,4.8c0.5,1.8,0.9,3.7,1,5.6L374.2,58.5L374.2,58.5z"/>
	<path class="st0" d="M506.6,49.3c-1.9-5.1-4.6-9.5-8-13.1c-3.4-3.6-7.5-6.4-12.3-8.4s-10-3-15.7-3c-5.6,0-10.8,1-15.6,3
		c-4.8,2-8.9,4.8-12.3,8.4s-6.2,8-8.1,13.1s-2.9,10.8-2.9,17c0,6.2,1,11.9,2.9,17.1c1.9,5.2,4.6,9.6,8,13.2s7.5,6.5,12.3,8.5
		c4.8,2,10.1,3,15.9,3c5.9,0,11.3-1,16-3s8.9-4.8,12.3-8.5c3.4-3.7,6-8.1,7.8-13.2c1.8-5.2,2.7-10.9,2.7-17.1
		C509.5,60.1,508.5,54.4,506.6,49.3 M482.4,82.8c-2.8,4.1-6.7,6.1-11.8,6.1s-9.1-2-11.9-6.1c-2.8-4.1-4.2-9.6-4.2-16.5
		s1.4-12.4,4.2-16.3s6.8-6,11.9-6c5.1,0,9.1,2,11.8,6c2.8,4,4.1,9.4,4.1,16.3C486.6,73.3,485.2,78.8,482.4,82.8"/>
	<path class="st0" d="M564.9,27c-1.7-0.4-3.4-0.6-5.1-0.9c-1.7-0.2-3.4-0.4-5.1-0.6c-1.7-0.1-3.2-0.2-4.4-0.2
		c-6.7,0-12.8,0.6-18.3,1.9s-10.2,2.6-14.2,4v75h22.4V45.6c1-0.3,2.5-0.6,4.4-0.8c2-0.2,3.6-0.4,5-0.4c3.1,0,6,0.3,8.7,0.8
		c1.7,0.3,3.2,0.7,4.6,1l3.9-18.7C566.3,27.3,565.6,27.1,564.9,27"/>
	<path class="st0" d="M143.4,35.9c-3.1,1.4-6.5,2-10.2,2s-7.1-0.7-10.2-2c-0.5-0.2-1-0.5-1.6-0.8v70.9h22.4V35.8
		C143.7,35.8,143.6,35.9,143.4,35.9"/>
	<path class="st0" d="M142.9,3.8c-2.8-2.5-6.1-3.8-10-3.8c-3.8,0-7.2,1.2-10,3.8S118,9.7,118,14c0,4.4,2.1,7.8,4.9,10.3
		c1.2,1.1,2.5,1.9,4,2.6c1.8,0.8,3.9,1.2,6,1.2s4.2-0.4,6-1.2c1.4-0.6,2.7-1.5,4-2.6c2.8-2.5,4.2-5.9,4.2-10.3
		C147.1,9.7,145.7,6.2,142.9,3.8"/>
</g>
</svg>
